<svg width="25" height="26" viewBox="0 0 25 26" fill="none" xmlns="http://www.w3.org/2000/svg">
<path d="M23.4098 12.1005L12.9931 1.68387C12.863 1.55453 12.687 1.48193 12.5035 1.48193C12.3201 1.48193 12.1441 1.55453 12.0139 1.68387L1.59728 12.1005C1.48351 12.2334 1.42406 12.4043 1.43082 12.579C1.43757 12.7538 1.51002 12.9196 1.6337 13.0433C1.75737 13.167 1.92316 13.2394 2.09794 13.2462C2.27271 13.2529 2.4436 13.1935 2.57645 13.0797L12.5001 3.1561L22.4237 13.0866C22.5565 13.2004 22.7274 13.2599 22.9022 13.2531C23.077 13.2464 23.2427 13.1739 23.3664 13.0502C23.4901 12.9266 23.5626 12.7608 23.5693 12.586C23.5761 12.4112 23.5166 12.2403 23.4028 12.1075L23.4098 12.1005Z" fill="currentColor"/>
<path d="M19.4444 22.3161H15.9722V15.3717H9.02774V22.3161H5.55551V12.5939L4.16663 13.9828V22.3161C4.16663 22.6845 4.31295 23.0378 4.57342 23.2982C4.83389 23.5587 5.18716 23.705 5.55551 23.705H10.4166V16.7606H14.5833V23.705H19.4444C19.8128 23.705 20.166 23.5587 20.4265 23.2982C20.687 23.0378 20.8333 22.6845 20.8333 22.3161V13.8161L19.4444 12.4272V22.3161Z" fill="currentColor"/>
</svg>
