<svg width="24" height="25" viewBox="0 0 24 25" fill="none" xmlns="http://www.w3.org/2000/svg">
<g clip-path="url(#clip0)">
<path d="M11.9091 0.09375C7.70473 0.09375 4.27273 3.52575 4.27273 7.73011C4.27273 10.3592 5.61455 12.6959 7.648 14.0716C3.75673 15.7407 1 19.5992 1 24.0938H3.18182C3.18182 19.261 7.07636 15.3665 11.9091 15.3665C16.7418 15.3665 20.6364 19.261 20.6364 24.0938H22.8182C22.8182 19.5992 20.0615 15.7396 16.1702 14.0705C17.2083 13.3701 18.0588 12.4259 18.6473 11.3206C19.2357 10.2152 19.5441 8.98236 19.5455 7.73011C19.5455 3.52575 16.1135 0.09375 11.9091 0.09375ZM11.9091 2.27557C14.9342 2.27557 17.3636 4.70502 17.3636 7.73011C17.3636 10.7552 14.9342 13.1847 11.9091 13.1847C8.884 13.1847 6.45455 10.7552 6.45455 7.73011C6.45455 4.70502 8.884 2.27557 11.9091 2.27557Z" fill="currentColor"/>
</g>
<defs>
<clipPath id="clip0">
<rect width="24" height="24" fill="currentColor" transform="translate(0 0.09375)"/>
</clipPath>
</defs>
</svg>
