<svg width="24" height="24" viewBox="0 0 24 24" fill="none" xmlns="http://www.w3.org/2000/svg">
<path d="M8.5761 2.67205L8.5601 9.10405C7.98302 8.97249 7.3918 8.91337 6.8001 8.92805C6.2081 9.08805 5.6161 9.93605 5.0401 10.1441C4.71317 8.68268 4.88349 7.15398 5.52405 5.8004C6.16461 4.44682 7.23874 3.34583 8.5761 2.67205ZM12.4321 1.64805L15.6801 7.16805C16.0717 6.77136 16.5257 6.44164 17.0241 6.19205C17.6001 6.03205 18.5281 6.46405 19.1681 6.36805C18.7262 4.94662 17.8251 3.71201 16.6061 2.85781C15.387 2.00361 13.919 1.57812 12.4321 1.64805ZM1.6001 20.8001H22.4001C21.3441 19.7441 18.1761 19.0241 15.4561 18.6721L12.4641 7.47205C13.2961 7.39205 14.3041 7.52005 14.9121 7.47205L11.5361 1.71205H11.5201C11.1428 1.76505 10.7688 1.83985 10.4001 1.93605C10.0502 2.0268 9.70784 2.14448 9.3761 2.28805L9.3601 8.92805C9.9201 8.65605 10.7041 8.06405 11.4401 7.74405L14.3201 18.5281C13.3921 18.4481 12.5761 18.4001 12.0001 18.4001C9.6481 18.4001 3.2001 19.2001 1.6001 20.8001Z" fill="currentColor"/>
</svg>
