<svg width="24" height="24" viewBox="0 0 24 24" fill="none" xmlns="http://www.w3.org/2000/svg">
<path d="M23 21L19 16.5C18.7891 16.2891 18.503 15.7486 18.203 15.7486H17.4389C18.7327 14.0939 19.5014 12.0131 19.5014 9.74906C19.5014 4.36359 15.1369 0 9.75094 0C4.365 0 0 4.36359 0 9.74906C0 15.1345 4.36453 19.4981 9.75094 19.4981C12.015 19.4981 14.0967 18.7294 15.7514 17.4356V18.1997C15.7514 18.4997 16.2891 18.7891 16.5 19L21 23C21.4406 23.4406 21.9066 24.1102 22.3425 23.6695L23.6691 22.343C24.1097 21.9023 23.4359 21.4406 23 21ZM9.75094 17.4981C6.0225 17.4981 2.00094 13.4822 2.00094 9.74906C2.00094 6.02109 6.01734 2 9.75094 2C13.4794 2 17.5009 6.01594 17.5009 9.74906C17.5009 13.477 13.4845 17.4981 9.75094 17.4981ZM9.75187 5.25C7.84031 5.25 6.29062 6.79922 6.29062 8.71078C6.29062 10.2558 8.55281 13.0725 9.41953 14.0948C9.46018 14.1435 9.51101 14.1826 9.56844 14.2095C9.62586 14.2363 9.68848 14.2502 9.75187 14.2502C9.81527 14.2502 9.87788 14.2363 9.93531 14.2095C9.99274 14.1826 10.0436 14.1435 10.0842 14.0948C10.9509 13.0725 13.2131 10.2562 13.2131 8.71078C13.2131 6.79922 11.6634 5.25 9.75187 5.25ZM9.75187 9.75C9.13031 9.75 8.62687 9.24609 8.62687 8.625C8.62687 8.00344 9.13078 7.5 9.75187 7.5C10.373 7.5 10.8769 8.00344 10.8769 8.625C10.8769 9.24609 10.373 9.75 9.75187 9.75Z" fill="currentColor"/>
</svg>
